<?xml version="1.0" encoding="UTF-8" standalone="no"?>
<!DOCTYPE svg PUBLIC "-//W3C//DTD SVG 1.1//EN" "http://www.w3.org/Graphics/SVG/1.1/DTD/svg11.dtd">
<svg version="1.1" xmlns="http://www.w3.org/2000/svg" xmlns:xlink="http://www.w3.org/1999/xlink" preserveAspectRatio="xMidYMid meet" viewBox="0 0 640 640" width="646" height="646"><defs><path d="" id="a497eY5eis"></path><path d="M59.31 416.9C58.02 417.14 59.25 416.65 57.85 416.9C53.87 417.63 49.44 420.12 44.57 424.39L39.21 430.64C37.33 436.06 37.33 440.92 39.21 445.23C41.1 449.55 50.43 457.81 67.2 470.02L134.49 525.79C158.26 548.23 178.11 565.51 194.04 577.62C209.97 589.73 221.98 597.24 230.08 600.15C239.85 605.41 252.45 608.04 267.88 608.04C283.31 608.04 301.57 604.85 322.66 598.47C333.29 593.91 343.41 589.11 353.04 584.06C362.66 579.01 371.79 573.72 380.43 568.18C391.81 560.91 400.73 552.06 407.18 541.64C413.64 531.22 417.62 519.22 419.13 505.65C420.62 497.62 420.62 487.29 419.13 474.64C417.65 462 416.06 453.77 414.37 449.95L349.46 280.39L316.11 193.63L297.46 149.13C292.74 143.79 287.72 140.6 282.4 139.57C277.07 138.54 271.44 139.66 265.5 142.93C261.03 145.05 258.05 149.07 256.57 154.98C255.08 160.9 255.08 168.71 256.57 178.42L279.49 238.75L302.42 299.09L302.42 306.96L295.27 309.68L287.23 305.19L285.15 299.09L219.65 132.79C215.33 125.47 210.24 120.58 204.39 118.14C198.53 115.7 191.91 115.7 184.51 118.14C177.84 121.44 173.85 125.85 172.56 131.39C171.27 136.93 172.68 143.6 176.77 151.38L237.51 313.62C242.47 323.01 242.47 329.02 237.51 331.65C232.55 334.28 227.39 332.03 222.03 324.89L207.14 287.15L184.51 225.74L144.02 122.65C141.12 115.61 137.04 110.91 131.78 108.57C126.52 106.22 120.08 106.22 112.46 108.57C106.21 110.65 102.04 114.55 99.95 120.28C97.87 126 97.87 133.56 99.95 142.93L176.77 346.86C176.25 350.52 174.85 352.96 172.56 354.18C170.28 355.4 167.12 355.4 163.07 354.18L157.12 343.48L99.95 191.94C96.64 186.35 93.03 182.5 89.13 180.38C82.49 176.76 74.95 178.25 70.07 180.38C64.96 182.61 60.82 183.41 57.64 191.94C56.01 196.34 55.42 203.1 55.89 212.22L74.35 264.05L104.72 343.48L124.37 394.74L144.02 447.7C145.21 450.52 145.21 452.39 144.02 453.33C142.83 454.27 140.45 454.27 136.87 453.33L104.72 434.74L74.35 418.97C69.29 416.69 64.27 416 59.31 416.9Z" id="bZg2aMnlx"></path><linearGradient id="gradientbkWkWi2mU" gradientUnits="userSpaceOnUse" x1="393.52" y1="298.42" x2="31.4" y2="451.63"><stop style="stop-color: #ff00db;stop-opacity: 1" offset="0%"></stop><stop style="stop-color: #0096ff;stop-opacity: 1" offset="100%"></stop></linearGradient><clipPath id="clipi7EF03Vxi"><use xlink:href="#bZg2aMnlx" opacity="1"></use></clipPath><path d="M354.18 79.25C365.78 65.88 377.7 59.19 389.95 59.19C402.2 59.19 414.77 65.88 427.67 79.25C436.23 65.86 445.77 57.49 456.28 54.15C466.8 50.81 478.29 52.49 490.75 59.19C502.32 65.42 509.08 74.33 511.03 85.92C512.98 97.52 510.12 111.8 502.46 128.77C521.75 127.74 536.06 131.12 545.38 138.93C554.7 146.74 559.03 158.97 558.38 175.62L475.79 401.88C487.68 394.57 498.45 389.15 508.1 385.59C517.74 382.04 526.27 380.37 533.67 380.57C542.69 380.74 550.35 383.22 556.63 388C562.92 392.78 567.84 399.86 571.39 409.24C573.7 417.91 572.68 426.8 568.35 435.92C564.01 445.03 556.35 454.37 545.38 463.93L415.96 566.72L432.22 517.2L533.67 433.06C541.54 428.74 543.53 422.55 539.62 414.51C535.72 406.47 528.54 405.75 518.06 412.37L460.84 444.34C450.32 449.06 442.52 450.17 437.42 447.66C432.33 445.15 430.6 439.03 432.22 429.3L527.17 172.33C528.7 163.98 526.33 158.55 520.04 156.04C513.76 153.53 507.89 155.62 502.46 162.3L437.42 332.15C429.48 343.89 420.52 346.94 410.55 341.3C400.57 335.66 396.53 328.85 398.41 320.87L479.04 102.75C482.3 94.76 480.73 88.46 474.33 83.86C467.94 79.27 461.92 80.55 456.28 87.71L373.69 299.56L352.88 239.39L402.31 109.65C404.34 99.98 402.22 93.52 395.93 90.28C389.65 87.04 383.53 89.53 377.6 97.74L336.63 200.53L320.37 162.3L354.18 79.25Z" id="b4gYTuBwWh"></path><linearGradient id="gradientcaWzZnj6v" gradientUnits="userSpaceOnUse" x1="511.06" y1="244.78" x2="335.32" y2="309.6"><stop style="stop-color: #fb5f00;stop-opacity: 1" offset="0%"></stop><stop style="stop-color: #ffcc00;stop-opacity: 1" offset="100%"></stop></linearGradient><clipPath id="clipacPzKVPHO"><use xlink:href="#b4gYTuBwWh" opacity="1"></use></clipPath></defs><g><g><g><g><use xlink:href="#a497eY5eis" opacity="1" fill-opacity="0" stroke="#000000" stroke-width="1" stroke-opacity="1"></use></g></g><g><use xlink:href="#bZg2aMnlx" opacity="1" fill="url(#gradientbkWkWi2mU)"></use><g clip-path="url(#clipi7EF03Vxi)"><use xlink:href="#bZg2aMnlx" opacity="1" fill-opacity="0" stroke="#003cff" stroke-width="2" stroke-opacity="1"></use></g></g><g><use xlink:href="#b4gYTuBwWh" opacity="1" fill="url(#gradientcaWzZnj6v)"></use><g clip-path="url(#clipacPzKVPHO)"><use xlink:href="#b4gYTuBwWh" opacity="1" fill-opacity="0" stroke="#ff0000" stroke-width="2" stroke-opacity="1"></use></g></g></g></g></svg>